<?xml version="1.0" encoding="UTF-8" standalone="no"?>
<svg
   xmlns:cc="http://creativecommons.org/ns#"
   xmlns:rdf="http://www.w3.org/1999/02/22-rdf-syntax-ns#"
   xmlns:svg="http://www.w3.org/2000/svg"
   xmlns="http://www.w3.org/2000/svg"
   viewBox="0 0 210 220"
   version="1.1"
   >

  <g
     id="layer">
    <path
       id="path36-3"
       style="fill:#000000;stroke:none;stroke-width:0.520608px;stroke-linecap:butt;stroke-linejoin:miter;stroke-opacity:1"
       d="m 105.39657,5.1435032 c 0,0 0,0.00307 0,0.00307 -0.81309,0.00703 -31.360336,0.3263196 -36.005416,8.9672828 -4.707503,8.757111 -4.556318,31.757143 -4.556318,31.757143 0,0 20.029231,5.338376 39.667954,5.523349 -8.9e-4,9.88e-4 -0.002,0.0073 -0.003,0.0081 0.17315,0 0.34725,-0.0031 0.52061,-0.0041 0.17341,8.34e-4 0.3473,0.0041 0.52061,0.0041 -8.4e-4,-7.81e-4 -0.001,-0.0073 -0.002,-0.0081 19.67355,-0.184979 40.70714,-5.523349 40.70714,-5.523349 0,0 0.15218,-23.000033 -4.55533,-31.757144 -4.64527,-8.6413785 -35.3359,-8.9603037 -36.14977,-8.9672798 0,0 0,-0.00307 0,-0.00307 0,0 -0.0694,9.891e-4 -0.0722,0.00104 -0.003,-5.2e-5 -0.0722,-0.00104 -0.0722,-0.00104 z" />
    <path
       id="path38-6"
       style="fill:#000000;stroke:none;stroke-width:0.520608px;stroke-linecap:butt;stroke-linejoin:miter;stroke-opacity:1"
       d="m 61.714201,45.870999 c 0,0 -55.6268547,9.576549 -55.6268547,25.135624 0,15.559126 41.7016067,26.139253 41.7016067,26.139253 0,0 -19.919278,12.175014 -32.895976,23.927704 46.364025,16.87362 50.700387,17.17291 39.756405,36.02468 40.057421,27.87741 50.891548,56.7962 50.891548,56.7962 0,0 10.83315,-28.91879 50.89057,-56.7962 -10.94398,-18.85177 -6.60762,-19.15106 39.75641,-36.02468 -12.97671,-11.75269 -32.89598,-23.927704 -32.89598,-23.927704 0,0 41.7026,-10.580127 41.7026,-26.139253 0,-15.559075 -55.62785,-25.135624 -55.62785,-25.135624 l 0.43924,12.350198 c 0,0 -21.46528,7.472612 -44.26499,7.472612 -22.799698,0 -44.265967,-7.472612 -44.265967,-7.472612 z m 8.167053,52.807238 c 0,0 10.877134,5.635693 28.170878,5.283343 -3.664359,4.35589 -6.011525,7.80305 -12.509869,7.80305 -6.498396,0 -14.129325,-4.99926 -15.661009,-13.086393 z m 71.318376,0 c -1.53169,8.087133 -9.16163,13.086393 -15.65997,13.086393 -6.4984,0 -8.84655,-3.44716 -12.51091,-7.80305 17.29374,0.35235 28.17088,-5.283343 28.17088,-5.283343 z" />
  </g>
</svg>
